<svg width="34" height="34" viewBox="0 0 34 34" fill="none" xmlns="http://www.w3.org/2000/svg">
<path d="M24.0833 12.75C24.0833 11.9986 23.7848 11.2779 23.2535 10.7465C22.7221 10.2152 22.0014 9.91667 21.25 9.91667M21.25 21.25C23.0379 21.2495 24.7801 20.6852 26.2288 19.6375C27.6775 18.5897 28.7589 17.1119 29.3192 15.4141C29.8796 13.7163 29.8903 11.885 29.3499 10.1808C28.8095 8.47654 27.7455 6.98609 26.3092 5.92143C24.8729 4.85677 23.1374 4.27211 21.3497 4.25061C19.562 4.22912 17.813 4.77189 16.3515 5.80171C14.89 6.83154 13.7904 8.29598 13.2092 9.98674C12.628 11.6775 12.5947 13.5085 13.1141 15.2192L12.75 15.5833L4.66508 23.6683C4.39939 23.9339 4.25008 24.2941 4.25 24.6698V28.3333C4.25 28.7091 4.39926 29.0694 4.66493 29.3351C4.93061 29.6007 5.29094 29.75 5.66667 29.75H8.5C8.87572 29.75 9.23606 29.6007 9.50174 29.3351C9.76741 29.0694 9.91667 28.7091 9.91667 28.3333C9.91667 27.9576 10.0659 27.5973 10.3316 27.3316C10.5973 27.0659 10.9576 26.9167 11.3333 26.9167C11.7091 26.9167 12.0694 26.7674 12.3351 26.5017C12.6007 26.2361 12.75 25.8757 12.75 25.5C12.75 25.1243 12.8993 24.7639 13.1649 24.4983C13.4306 24.2326 13.7909 24.0833 14.1667 24.0833H14.9968C15.3725 24.0833 15.7328 23.9339 15.9984 23.6683L18.4167 21.25L18.7808 20.8859C19.5814 21.1281 20.4135 21.2508 21.25 21.25Z" stroke="#00AEF1" stroke-width="2.1" stroke-linecap="round" stroke-linejoin="round"/>
</svg>
