<svg width="28" height="28" viewBox="0 0 28 28" fill="none" xmlns="http://www.w3.org/2000/svg">
<g clip-path="url(#clip0_688_3740)">
<path d="M14 2.625C10.9838 2.625 8.08855 3.82417 5.95752 5.95663C3.8243 8.08994 2.62561 10.9831 2.625 14C2.625 17.0156 3.82471 19.9109 5.95752 22.0434C8.08855 24.1758 10.9838 25.375 14 25.375C17.0162 25.375 19.9114 24.1758 22.0425 22.0434C24.1753 19.9109 25.375 17.0156 25.375 14C25.375 10.9844 24.1753 8.08909 22.0425 5.95663C19.9114 3.82417 17.0162 2.625 14 2.625Z" fill="#00AEF1"/>
<path d="M7.77386 13.8799C11.0904 12.4352 13.3014 11.4828 14.4069 11.0226C17.567 9.7086 18.2229 9.48039 18.6512 9.47266C18.7454 9.47115 18.9551 9.49443 19.092 9.60507C19.2057 9.69839 19.2377 9.82458 19.2537 9.91318C19.2679 10.0017 19.2875 10.2034 19.2715 10.3609C19.1009 12.1596 18.3597 16.5244 17.9829 18.539C17.8247 19.3914 17.5102 19.6772 17.2062 19.7051C16.5451 19.7659 16.0438 19.2686 15.404 18.8493C14.4034 18.1929 13.8382 17.7845 12.866 17.1441C11.7427 16.404 12.4714 15.9972 13.1112 15.3325C13.2783 15.1585 16.1896 12.5111 16.2447 12.271C16.2518 12.241 16.2589 12.129 16.1914 12.07C16.1256 12.0108 16.0278 12.0311 15.9568 12.0471C15.8554 12.0698 14.2576 13.127 11.1579 15.2184C10.7047 15.5301 10.2941 15.6821 9.92445 15.6741C9.51922 15.6654 8.73718 15.4444 8.15599 15.2557C7.44506 15.0241 6.87808 14.9016 6.92785 14.5083C6.95273 14.3036 7.23533 14.094 7.77386 13.8799Z" fill="white"/>
</g>
<defs>
<clipPath id="clip0_688_3740">
<rect width="22.75" height="22.75" fill="white" transform="translate(2.625 2.625)"/>
</clipPath>
</defs>
</svg>
