<svg width="28" height="28" viewBox="0 0 28 28" fill="none" xmlns="http://www.w3.org/2000/svg">
<path d="M4.97 4.97C3.5 6.454 3.5 8.827 3.5 13.58V14.42C3.5 19.166 3.5 21.539 4.97 23.03C6.454 24.5 8.827 24.5 13.58 24.5H14.42C19.166 24.5 21.539 24.5 23.03 23.03C24.5 21.546 24.5 19.173 24.5 14.42V13.58C24.5 8.834 24.5 6.461 23.03 4.97C21.546 3.5 19.173 3.5 14.42 3.5H13.58C8.834 3.5 6.461 3.5 4.97 4.97ZM7.042 9.891H9.45C9.527 13.895 11.291 15.589 12.691 15.939V9.891H14.952V13.342C16.331 13.195 17.787 11.62 18.277 9.884H20.531C20.3471 10.7826 19.9799 11.6336 19.4524 12.384C18.9249 13.1343 18.2483 13.7678 17.465 14.245C18.3393 14.68 19.1115 15.2955 19.7305 16.0509C20.3495 16.8062 20.8013 17.6842 21.056 18.627H18.571C18.039 16.968 16.709 15.68 14.952 15.505V18.627H14.672C9.884 18.627 7.154 15.351 7.042 9.891Z" fill="#00AEF1"/>
<path d="M7.042 9.891H9.45C9.527 13.895 11.291 15.589 12.691 15.939V9.891H14.952V13.342C16.331 13.195 17.787 11.62 18.277 9.884H20.531C20.3471 10.7826 19.9799 11.6336 19.4524 12.384C18.9249 13.1343 18.2483 13.7678 17.465 14.245C18.3393 14.68 19.1115 15.2955 19.7305 16.0509C20.3495 16.8062 20.8013 17.6842 21.056 18.627H18.571C18.039 16.968 16.709 15.68 14.952 15.505V18.627H14.672C9.884 18.627 7.154 15.351 7.042 9.891Z" fill="white"/>
</svg>
