<svg width="28" height="28" viewBox="0 0 28 28" fill="none" xmlns="http://www.w3.org/2000/svg">
<path d="M26.6877 7.57817C26.5354 7.01543 26.2383 6.50239 25.8261 6.09015C25.4139 5.67791 24.9009 5.38085 24.3381 5.22855C22.278 4.66669 13.9864 4.66669 13.9864 4.66669C13.9864 4.66669 5.6945 4.68369 3.63432 5.24556C3.07158 5.39787 2.55855 5.69495 2.14632 6.1072C1.7341 6.51946 1.43707 7.03252 1.28481 7.59528C0.661657 11.2558 0.419924 16.8336 1.30192 20.3477C1.4542 20.9105 1.75124 21.4235 2.16346 21.8357C2.57568 22.248 3.0887 22.545 3.65144 22.6973C5.71161 23.2592 14.0033 23.2592 14.0033 23.2592C14.0033 23.2592 22.295 23.2592 24.355 22.6973C24.9178 22.5451 25.4308 22.248 25.8431 21.8358C26.2553 21.4235 26.5524 20.9105 26.7047 20.3477C27.3619 16.682 27.5645 11.1076 26.6877 7.57817Z" fill="#00AEF1"/>
<path d="M11.3474 17.947L18.2259 13.9629L11.3474 9.97882V17.947Z" fill="white"/>
</svg>
